Coordinates
version=1
nRows=13
nColumns=36
inDegrees=yes

Units are S.I. units (second, meters, Newtons, ...)
If the header above contains a line with 'inDegrees', this indicates whether rotational values are in degrees (yes) or radians (no).

endheader
time	pelvis_tilt	pelvis_list	pelvis_rotation	pelvis_tx	pelvis_ty	pelvis_tz	hip_flexion_r	hip_adduction_r	hip_rotation_r	knee_angle_r	knee_angle_r_beta	ankle_angle_r	subtalar_angle_r	mtp_angle_r	hip_flexion_l	hip_adduction_l	hip_rotation_l	knee_angle_l	knee_angle_l_beta	ankle_angle_l	subtalar_angle_l	mtp_angle_l	lumbar_extension	lumbar_bending	lumbar_rotation	arm_flex_r	arm_add_r	arm_rot_r	elbow_flex_r	pro_sup_r	arm_flex_l	arm_add_l	arm_rot_l	elbow_flex_l	pro_sup_l
      2.23333330	    -32.23721932	      2.08295550	      2.76090575	      0.37945467	      0.72486622	     -0.09958632	     83.68676337	    -20.86163995	     -2.87424971	     73.94447107	      1.29057448	     39.52236448	     17.12687081	     -7.49999875	     79.69794665	    -16.92938573	     -9.36517716	     69.76589058	      1.21764450	     32.19902530	     13.32577432	     -7.49999875	    -25.53614727	     -4.99696894	     -3.15282644	     90.80800610	      8.26938359	     66.43991684	    114.67798331	     85.90428994	     88.00216562	      8.12468816	     78.28719017	    121.41826525	     78.51218707
      2.25000000	    -32.87231248	      2.12336032	      2.83785657	      0.37534973	      0.71696331	     -0.09746644	     85.86853789	    -21.05163992	     -2.26552300	     75.71450087	      1.32146733	     40.03701464	     17.68850433	     -7.49999876	     81.78818055	    -17.33737107	     -9.29721109	     71.61566376	      1.24992913	     32.65173159	     13.74300449	     -7.49999876	    -26.15080725	     -5.07431627	     -3.25073051	     92.41656095	      7.90609572	     65.71126460	    114.62006230	     85.86712555	     89.30266327	      7.95446173	     77.73647522	    121.72997872	     78.54695663
      2.26666670	    -33.17293248	      2.19982097	      2.94397364	      0.37993423	      0.71260592	     -0.09945778	     87.31662464	    -21.50435066	     -1.86778930	     77.41596659	      1.35116351	     40.36433020	     18.21152802	     -7.49999877	     82.89994604	    -17.68512183	     -9.38934290	     73.00797745	      1.27422959	     33.04110959	     14.06323196	     -7.49999877	    -26.82869502	     -4.96215492	     -3.30729786	     93.19282104	      7.70651571	     65.51167875	    114.28559162	     85.84999004	     89.84672007	      7.84548773	     77.57586534	    121.80571668	     78.61175660
      2.28333330	    -33.28139452	      2.29171464	      3.17004577	      0.38312085	      0.70535494	     -0.10268248	     88.31731727	    -22.27461139	     -1.62280538	     78.96087713	      1.37812729	     40.52319799	     19.06214402	     -7.49999879	     83.60117070	    -17.84813273	     -9.62543333	     74.37559180	      1.29809896	     33.70027899	     14.90929340	     -7.49999879	    -27.83808261	     -4.72905869	     -3.63132814	     93.58821243	      7.72348891	     66.02997097	    114.04453145	     85.85533560	     89.90548864	      7.82455443	     78.14497579	    121.92466842	     78.88631686
      2.30000000	    -33.44050142	      2.17231435	      3.51631266	      0.37792160	      0.69174567	     -0.10051595	     89.78076920	    -23.00399639	     -1.43735877	     80.86061124	      1.41128390	     40.85345210	     19.44307901	     -7.49999884	     85.04177402	    -18.00587421	     -9.32436349	     76.24003644	      1.33063966	     34.38274456	     15.31255555	     -7.49999884	    -28.65137946	     -4.43900670	     -3.84659713	     94.30439360	      7.75681585	     65.92286795	    113.98029707	     85.08834495	     90.84528392	      8.17020556	     77.73663119	    121.73153839	     78.42488010
      2.31666670	    -33.69384397	      2.11469844	      3.97204389	      0.37221034	      0.67795230	     -0.09823067	     91.81985671	    -23.74188137	     -1.06204212	     83.13495839	      1.45097875	     41.21822174	     19.92226119	     -7.49999893	     86.92688865	    -18.08083782	     -8.94685024	     78.27333308	      1.36612738	     35.03643201	     16.01149008	     -7.49999893	    -29.35364218	     -4.23212116	     -3.96754693	     95.36523441	      7.80315312	     65.52523399	    113.93447556	     83.80251191	     92.15956882	      8.81641559	     77.15871386	    121.50237037	     77.70590120
      2.33333330	    -34.10860354	      2.06615601	      4.34319589	      0.37200783	      0.67002296	     -0.09875171	     93.73153110	    -24.26543087	     -0.68877792	     85.03476783	      1.48413668	     41.59615386	     20.06951827	     -7.49999893	     88.86076221	    -18.19118178	     -8.59951812	     80.09229684	      1.39787429	     35.43485897	     16.31526358	     -7.49999893	    -29.86491782	     -4.05047544	     -4.22960852	     95.95813918	      7.94069574	     65.17551681	    114.16949408	     83.77977019	     93.37101568	      9.01097345	     76.60613636	    121.12625675	     77.85391104
      2.35000000	    -34.73642478	      1.85819379	      4.67797284	      0.36644140	      0.65434180	     -0.09766423	     96.12753856	    -24.64764211	     -0.22239328	     87.06245618	      1.51952652	     42.11939933	     20.17067476	     -7.49999897	     91.47605181	    -18.40356788	     -7.94181570	     82.29865834	      1.43638256	     35.89097467	     16.68113951	     -7.49999897	    -29.87358985	     -3.82800566	     -4.27827625	     96.76910602	      7.93487113	     64.61872898	    114.26925819	     83.32356578	     94.52676685	      9.35647483	     75.80831258	    120.76278802	     77.82125221
      2.36666670	    -35.31561330	      1.62345208	      4.96804466	      0.36654524	      0.64541999	     -0.09707304	     98.18245729	    -25.00623399	      0.14595230	     88.90090515	      1.55161350	     42.55241346	     20.37422891	     -7.49999898	     93.82026621	    -18.77449010	     -7.46978824	     84.33350613	      1.47189735	     36.07829773	     17.17370431	     -7.49999898	    -30.00542983	     -3.60460380	     -4.31995203	     97.55070931	      7.92522153	     64.45488815	    114.68791903	     83.25923741	     95.61291945	      9.59757066	     75.51473819	    120.44871247	     78.10680889
      2.38333330	    -35.70308608	      1.60517510	      5.01356696	      0.36563503	      0.63563543	     -0.09819722	    100.02187931	    -25.22266838	      0.66197647	     90.58753638	      1.58105077	     42.87622587	     20.63637056	     -7.49999900	     95.80781560	    -19.27314489	     -7.19267748	     86.39954047	      1.50795645	     36.29017452	     17.67035338	     -7.49999900	    -30.40817616	     -3.56773857	     -4.23557162	     98.23080363	      7.94370045	     64.31958752	    114.55640302	     83.12959765	     96.53797151	      9.92138070	     75.34025910	    120.04088357	     78.20148993
      2.40000000	    -36.11412801	      1.55621931	      5.11841543	      0.36137559	      0.62751411	     -0.10034465	    101.73096621	    -25.54732281	      1.21717440	     91.87655787	      1.60354844	     42.84503347	     20.69910745	     -7.49999901	     97.75772988	    -19.55266992	     -6.93955224	     88.20348645	      1.53944125	     36.19882130	     17.81937447	     -7.49999901	    -30.95534905	     -3.41762678	     -4.20384387	     99.41339712	      7.87951979	     63.93970958	    114.63298312	     83.13563524	     97.74951558	     10.28314213	     75.32831562	    119.72845497	     78.42183969
      2.41666670	    -36.28530144	      1.29424238	      5.25509997	      0.35962097	      0.60575729	     -0.10271974	    103.69970528	    -26.19750172	      1.82152743	     94.14166249	      1.64308197	     43.34154492	     21.02930775	     -7.49999911	    100.10204846	    -19.78824727	     -6.12673188	     90.81749790	      1.58506436	     36.67787963	     18.15158855	     -7.49999911	    -31.18548709	     -2.86700508	     -4.29133695	    100.87221516	      7.94250118	     63.66870131	    114.70924423	     81.30350646	     99.31029111	     10.69165770	     75.27545343	    119.29189076	     77.16337645
      2.43333330	    -36.76806062	      1.24848411	      5.20134966	      0.35938811	      0.59564785	     -0.10268162	    106.02857176	    -26.36619447	      2.75903397	     96.32038263	      1.68110781	     43.54169683	     20.79515184	     -7.49999926	    102.44387946	    -20.18046476	     -5.57111360	     93.19920801	      1.62663304	     36.98764465	     17.93406416	     -7.49999926	    -31.07084287	     -2.87605359	     -4.27965572	    101.53849324	      7.68888990	     63.33639265	    115.50270000	     82.70423350	    100.23017999	     10.62287979	     76.18948320	    119.03086702	     81.66852605
